PathFileType	4	(X/Y/Z)	Patient5_TMGait_0pt45_1_right_10.trc.trc
DataRate	CameraRate	NumFrames	NumMarkers	Units	OrigDataRate	OrigDataStartFrame	OrigNumFrames
58.333333333333	58.333333333333	5	32	mm	58.333333333333	36	       141
Frame#	Time	R.ASIS			L.ASIS			Chest			R.Shoulder			Neck			L.Shoulder			L.Elbow			L.Wrist			R.Elbow			R.Wrist			L.Thigh.Superior			L.Thigh.Lateral			L.Thigh.Inferior			L.Patella			L.Shank.Superior			L.Shank.Lateral			L.Shank.Inferior			L.Heel			L.Midfoot.Lateral			L.Midfoot.Superior			L.Toe			R.Thigh.Superior			R.Thigh.Lateral			R.Thigh.Inferior			R.Patella			R.Shank.Superior			R.Shank.Lateral			R.Shank.Inferior			R.Heel			R.Midfoot.Lateral			R.Midfoot.Superior			R.Toe			
		X1	Y1	Z1	X2	Y2	Z2	X3	Y3	Z3	X4	Y4	Z4	X5	Y5	Z5	X6	Y6	Z6	X7	Y7	Z7	X8	Y8	Z8	X9	Y9	Z9	X10	Y10	Z10	X11	Y11	Z11	X12	Y12	Z12	X13	Y13	Z13	X14	Y14	Z14	X15	Y15	Z15	X16	Y16	Z16	X17	Y17	Z17	X18	Y18	Z18	X19	Y19	Z19	X20	Y20	Z20	X21	Y21	Z21	X22	Y22	Z22	X23	Y23	Z23	X24	Y24	Z24	X25	Y25	Z25	X26	Y26	Z26	X27	Y27	Z27	X28	Y28	Z28	X29	Y29	Z29	X30	Y30	Z30	X31	Y31	Z31	X32	Y32	Z32	

36	16.920000000000	974.691464481025	975.668698541798	592.870997611399	955.618487682389	963.373961016332	351.677728128858	1023.709872527158	1439.078692281534	505.874010283751	922.963087505028	1493.879753539423	676.445680151420	895.558481763536	1560.347742333907	495.077736757236	960.430327602952	1513.872659041814	311.679967405330	885.806757187774	1204.065829819651	166.364764568137	982.110819067999	929.762668001161	178.004052306137	842.351197131981	1171.065033437445	808.162300477747	1057.954913145203	992.653377304128	729.622233779860	962.459488400559	737.062451239100	333.344866500199	881.795534038401	672.072332196765	292.286574103756	955.227524082237	606.479428438766	343.525185966253	935.490829580429	468.805185506625	336.709822510787	848.820095971796	388.838540379181	365.662011831552	750.128707182546	359.349134175082	295.825594528737	765.748731175986	293.915565535316	381.606020277434	541.719177836603	134.425283380990	390.630835547379	615.343054452914	71.893631466153	338.966180458636	726.637354250221	97.245552074045	378.127386131238	803.838996418532	41.628969922756	397.222680690671	993.924922373889	743.848476201450	611.495097751112	908.603716451844	662.206518677375	659.343152505270	992.219123328135	615.762053068883	585.206582422779	994.829692886385	518.899956169823	611.747998586191	958.797214782285	420.226972630548	570.563613431963	888.362389026291	347.720103964574	648.980293000369	947.336993714500	280.843632847896	566.311561966993	834.472083962269	53.465848492501	525.718865180223	909.635390283089	25.194211784048	602.758827061172	1016.334732511721	88.852678735002	583.497272030500	1120.083096689960	44.838809842150	588.193535435287	
37	16.937142857143	973.123990888777	974.729405139422	594.345062289662	952.135904256070	963.371302833867	353.991074511986	1024.018417087686	1438.398071927111	508.844345825426	924.935592413805	1493.151152846613	680.346438828112	895.796057631077	1559.999701933076	499.438205942035	959.301075003012	1513.971981629328	315.455704046582	882.375233056457	1205.158102061669	169.572761627697	978.463606136660	930.782100980580	180.827912203546	844.016907076138	1171.074023687180	813.306995147644	1059.874832211003	993.666219161693	733.252882602804	965.643788025428	738.582482125053	330.972110234479	887.482909313918	671.848038194994	289.845466115133	964.405310585097	608.063559348343	339.181653450199	948.919333708982	468.715774400351	331.357070664204	859.725704353359	389.109021235270	361.403382279646	759.820744914177	362.742178569821	292.335948849076	773.543695417255	297.570275083992	378.362802088899	543.761614634986	150.223691976719	388.424375703502	612.686987103309	81.927577318652	337.826651867829	725.570031739556	100.203023676203	376.267365698291	797.563455353347	40.699778545136	396.803290336467	988.209491951420	742.256378807966	611.530982904480	901.800291890343	662.019907249650	660.496238014340	983.211067567139	614.249974564851	584.970197879978	984.680304765899	517.970462555761	611.332506825038	948.346554620014	420.361039576483	570.701450825086	879.062308861325	347.605919621109	649.529530800203	937.933572495323	281.072518287720	566.490111340668	826.622915213821	53.287923564290	525.716000775521	901.749999928508	25.096668743269	602.748242641422	1008.430061353667	88.769123355108	583.332894662672	1112.221794231130	44.844472666133	588.154489762186	
38	16.954285714286	971.290327511816	973.440806169287	595.622961164477	948.453996590530	962.746253284085	356.192819800406	1024.237323272860	1437.089784440862	511.543181347279	926.901097625508	1491.687463047063	683.990826265017	895.911855137334	1559.034635084709	503.545123447627	958.001747165653	1513.448228552057	318.969186222293	878.680826931595	1205.410662731290	172.859984488713	975.072258254070	931.160084395872	183.333626635323	846.181212599953	1170.398074099566	818.588578591935	1061.927071713526	993.578493219669	737.023857001222	969.178228871814	740.213330112685	328.574078638559	893.839734203664	671.554546356776	287.369168082090	974.325664480834	610.060565432569	335.052517181982	963.376953119636	469.263156275373	326.621662683022	871.604502146124	389.810196702018	357.442297817009	770.999105615223	366.502098140636	288.895023975588	782.348387644104	301.866138901684	375.288301530946	547.387322884065	167.460469390117	385.885550246396	611.128025418629	93.549378223923	336.411068542315	725.275301505915	104.362222719395	374.348478971762	791.848242851115	39.845268553379	396.114496627959	982.340696467652	740.577309914369	611.514234137191	895.022537607794	661.800144774898	661.809918946827	974.132431118925	612.717447542798	584.846835102467	974.586185154980	516.979937295406	611.058177761145	937.800813775293	420.456805148413	571.005360729238	869.806985449691	347.452017519114	650.305318802153	928.514288451159	281.301423187151	566.794727007127	818.793694517305	53.120473337228	525.741942203097	893.899276489577	25.000564279781	602.743689938356	1000.543293997792	88.680823702394	583.171592650216	1104.391195349225	44.842029768366	588.084801183879	
39	16.971428571429	969.149976022188	971.925278357640	596.847999328374	944.648681828109	961.595500729353	358.302170578844	1024.332267937315	1435.237387764935	513.898015522963	928.785621763945	1489.583668852197	687.271108589040	895.924850880275	1557.552716726917	507.283740398483	956.584894567724	1512.400068042053	322.129935139998	874.775380947589	1204.872758767511	176.213717012975	971.885912249407	930.906124472237	185.479533763253	848.929983042159	1169.082869973447	823.864488200482	1064.110563509582	992.277111757823	740.918808810047	972.891534119448	742.130470146827	326.442674585522	900.661101768480	671.406180360067	285.120828546812	984.637178555224	612.665504288968	331.493047290479	978.376436265762	470.579153371251	322.812364582850	884.080837849368	391.125343583542	354.045373933392	783.257788720240	370.710709628561	285.682083839101	791.819285947257	306.822818914707	372.507636496925	552.434235653916	185.515866464832	383.046459923107	610.852732298851	106.413462840440	334.686935767743	725.882349297893	109.807629115268	372.410250380134	787.053223604185	39.288167749733	395.126417912213	976.482081815606	738.918672543511	611.748779101001	888.375796681985	661.566181100277	663.349058862259	965.329443964106	611.257606085938	585.098117005365	964.879786621156	515.973566844024	611.152441505724	927.524751087436	420.495819137727	571.575431306426	860.772573435465	347.277555727949	651.319333757420	919.290289634340	281.505061533350	567.292677560979	810.985972109961	52.994217893108	525.806478005329	886.078965315970	24.905757666057	602.762036006322	992.669373745275	88.593826102907	583.054239925163	1096.586241242336	44.840274715039	588.005299815987	
40	16.988571428571	966.703220480285	970.350492261201	598.194837517873	940.806691815211	960.083054268948	360.356523568835	1024.284395449490	1432.995632546629	515.844793745323	930.525563362685	1487.021682492397	690.085963972857	895.870629527163	1555.720308787422	510.547661755234	955.109124419956	1510.989365293724	324.855375714825	870.791771191995	1203.687013907737	179.564752900206	968.874330337018	930.101496974175	187.300267947924	852.255044886156	1167.266488956925	828.948878557931	1066.398753332321	989.811384013982	744.902631346858	976.596819537741	744.487028111614	324.886858533218	907.709195146010	671.621623937889	283.355392854730	994.949526730725	616.020895461879	328.824554460402	993.410047375503	472.747607224174	320.131851101138	896.775492170214	393.176867085753	351.419656882954	796.132794438484	375.388835354329	282.855447532139	801.640954875749	312.363029905459	370.122270714631	558.662376225363	203.480338776021	379.980920345073	612.095938056495	119.904760759804	332.635954085209	727.617939032072	116.438601817596	370.495178105073	783.721179347983	39.297375283487	393.836923773846	970.805648755156	737.390126537188	612.439561168067	881.984097740535	661.336072915207	665.119961984622	957.118458764526	609.945609262378	585.869489840448	955.853536873784	514.999488452608	611.736291786727	917.853254466711	420.461977357422	572.445193196828	852.136336087951	347.099660070204	652.539488043989	910.448980067828	281.653839770754	568.001260946602	803.198824673272	52.931105762967	525.913441238806	878.280717767458	24.815312482625	602.815382061558	984.807658333240	88.510568218077	583.000453295847	1088.801175735930	44.842687954573	587.931425071885	
